<svg width="26" height="15" fill="none" xmlns="http://www.w3.org/2000/svg"><path fill-rule="evenodd" clip-rule="evenodd" d="M14.504 14.937s.46-.052.696-.313c.216-.24.208-.691.208-.691s-.028-2.108.92-2.419c.936-.306 2.136 2.038 3.41 2.94.963.681 1.694.532 1.694.532l3.405-.049s1.78-.113.936-1.557c-.07-.118-.492-1.069-2.53-3.02-2.137-2.044-1.85-1.714.721-5.249 1.566-2.153 2.192-3.467 1.996-4.029-.186-.537-1.338-.395-1.338-.395L20.79.712s-.285-.04-.495.09c-.206.127-.34.424-.34.424S19.35 2.892 18.54 4.31c-1.707 2.988-2.389 3.146-2.668 2.961-.65-.433-.488-1.738-.488-2.666 0-2.897.427-4.104-.829-4.417-.416-.104-.723-.172-1.789-.184-1.368-.014-2.525.005-3.18.336-.437.22-.774.711-.568.74.253.034.827.159 1.131.586.393.551.38 1.788.38 1.788s.225 3.41-.528 3.834c-.517.29-1.225-.302-2.747-3.014-.78-1.39-1.368-2.925-1.368-2.925s-.113-.286-.317-.44C5.324.72 4.981.662 4.981.662L1.339.687S.792.703.59.948c-.179.218-.014.67-.014.67s2.852 6.88 6.08 10.349c2.962 3.179 6.324 2.97 6.324 2.97h1.523z" fill="#5376A4"/></svg>