<svg width="376" height="122" viewBox="0 0 376 122" fill="none" xmlns="http://www.w3.org/2000/svg">
<g clip-path="url(#clip0)">
<path d="M1.20559 16.7216C11.4284 45.3396 11.4284 76.6687 1.20559 105.287C-2.73405 116.313 3.28652 123.627 14.8226 121.695C129.476 102.525 246.514 102.525 361.177 121.695C372.703 123.627 378.734 116.303 374.794 105.287C364.572 76.6687 364.572 45.3396 374.794 16.7216C378.734 5.69528 372.713 -1.61854 361.177 0.313601C246.524 19.4833 129.476 19.4833 14.8226 0.313601C3.29663 -1.61854 -2.73405 5.69528 1.20559 16.7216Z" fill="#FF6D00"/>
<path d="M52.0089 79.72C62.4489 79.72 70.2249 72.016 70.2249 61C70.2249 49.984 62.4489 42.28 52.0089 42.28C41.5689 42.28 33.7929 49.984 33.7929 61C33.7929 72.016 41.5689 79.72 52.0089 79.72ZM52.0089 73.096C45.7449 73.096 40.9929 68.272 40.9929 61C40.9929 53.728 45.7449 48.904 52.0089 48.904C58.2729 48.904 63.0249 53.728 63.0249 61C63.0249 68.272 58.2729 73.096 52.0089 73.096ZM93.993 42.856C87.801 42.856 83.409 45.592 81.249 49.552V48.184C81.249 38.896 83.697 35.944 91.473 34.864L99.321 33.712C107.025 32.704 109.689 30.976 109.833 25H102.633C102.561 26.008 102.057 26.944 99.537 27.304L90.825 28.528C79.737 30.184 74.409 34.576 74.409 48.688V61.432C74.409 72.16 82.329 79.72 92.625 79.72C102.993 79.72 110.841 72.16 110.841 61.288C110.841 50.416 103.065 42.856 93.993 42.856ZM92.625 73.096C86.217 73.096 81.609 68.344 81.609 61.288C81.609 54.304 86.217 49.48 92.625 49.48C99.105 49.48 103.641 54.448 103.641 61.288C103.641 68.2 99.105 73.096 92.625 73.096ZM132.96 83.032L147.144 43H139.944L129.576 73.168L119.136 43H111.936L126.192 82.96C123.888 88.576 121.44 91.24 116.904 91.24C115.176 91.24 113.52 90.88 112.152 90.448V96.784C113.52 97.216 115.536 97.576 117.552 97.576C126.408 97.576 129.936 91.6 132.96 83.032ZM172.358 59.128C170.99 59.488 168.83 59.992 165.302 59.992C159.398 59.992 156.158 57.616 156.158 51.136V43H148.958V51.208C148.958 62.08 154.142 66.616 164.726 66.616C167.246 66.616 170.342 66.256 172.358 65.608V79H179.558V43H172.358V59.128ZM220.753 63.448C220.825 62.656 220.897 61.864 220.897 61C220.897 49.984 213.409 42.28 203.185 42.28C192.961 42.28 185.473 49.984 185.473 61C185.473 72.016 192.961 79.72 203.185 79.72C211.465 79.72 217.729 75.616 219.961 68.2H212.185C210.745 71.44 207.865 73.384 203.473 73.384C197.425 73.384 193.393 69.712 192.529 63.448H220.753ZM203.185 48.616C208.945 48.616 212.905 52.216 213.769 58.264H192.601C193.465 52.216 197.353 48.616 203.185 48.616ZM234.118 79V64.096H251.398V79H258.598V43H251.398V57.544H234.118V43H226.918V79H234.118ZM299.79 79V43H290.646L274.158 71.728V43H267.246V79H276.39L292.878 50.272V79H299.79ZM341.034 63.448C341.106 62.656 341.178 61.864 341.178 61C341.178 49.984 333.69 42.28 323.466 42.28C313.242 42.28 305.754 49.984 305.754 61C305.754 72.016 313.242 79.72 323.466 79.72C331.746 79.72 338.01 75.616 340.242 68.2H332.466C331.026 71.44 328.146 73.384 323.754 73.384C317.706 73.384 313.674 69.712 312.81 63.448H341.034ZM323.466 48.616C329.226 48.616 333.186 52.216 334.05 58.264H312.882C313.746 52.216 317.634 48.616 323.466 48.616Z" fill="white"/>
</g>
<defs>
<clipPath id="clip0">
<rect width="376" height="122" fill="white"/>
</clipPath>
</defs>
</svg>
