<svg width="377" height="132" viewBox="0 0 377 132" fill="none" xmlns="http://www.w3.org/2000/svg">
<g clip-path="url(#clip0)">
<path d="M370.353 57.458C349.721 46.3973 332.912 28.704 322.381 6.95316C320.149 2.3445 317.155 0.0301497 314.152 9.32592e-05C314.142 9.32592e-05 314.132 9.32592e-05 314.122 9.32592e-05C314.112 9.32592e-05 314.092 9.32592e-05 314.082 9.32592e-05C313.371 9.32592e-05 312.61 0.0602062 311.799 0.190451C230.171 14.0064 146.82 14.0064 65.1913 0.190451C64.3905 0.0501874 63.6096 -0.00992556 62.8988 9.32592e-05C59.8856 9.32592e-05 56.8723 2.31444 54.6198 6.95316C44.0884 28.704 27.2801 46.4073 6.64766 57.458C-2.21198 62.207 -2.21198 69.7912 6.64766 74.5401C27.2801 85.6009 44.0884 103.294 54.6198 125.045C56.8623 129.684 59.8856 131.998 62.8988 131.998C63.6196 132.008 64.3905 131.938 65.1913 131.808C146.82 118.002 230.171 118.002 311.799 131.808C312.61 131.938 313.371 132.008 314.082 131.998C314.092 131.998 314.102 131.998 314.112 131.998C314.122 131.998 314.132 131.998 314.152 131.998C317.145 131.978 320.139 129.664 322.381 125.045C332.922 103.294 349.731 85.5909 370.353 74.5401C379.213 69.7912 379.213 62.207 370.353 57.458Z" fill="#FF64B0"/>
<path d="M76.8701 88.032L91.0541 48H83.8541L73.4861 78.168L63.0461 48H55.8461L70.1021 87.96C67.7981 93.576 65.3501 96.24 60.8141 96.24C59.0861 96.24 57.4301 95.88 56.0621 95.448V101.784C57.4301 102.216 59.4461 102.576 61.4621 102.576C70.3181 102.576 73.8461 96.6 76.8701 88.032ZM103.951 62.976V68.376H109.639C113.743 68.376 116.263 70.248 116.263 73.632C116.263 76.728 114.031 79.032 108.415 79.032C102.511 79.032 99.5593 76.152 99.5593 71.256H92.3593C92.3593 79.824 98.2633 84.72 108.343 84.72C118.207 84.72 123.463 80.616 123.463 73.848C123.463 69.816 121.303 67.08 117.271 65.712C120.799 64.2 122.599 61.104 122.599 57.576C122.599 51.96 117.919 47.28 108.343 47.28C98.1913 47.28 92.9353 53.184 92.9353 60.24H100.135C100.135 55.632 103.087 53.04 108.343 53.04C113.311 53.04 115.687 55.128 115.687 58.152C115.687 61.32 113.599 62.976 109.639 62.976H103.951ZM136.856 84V69.096H154.136V84H161.336V48H154.136V62.544H136.856V48H129.656V84H136.856ZM180.352 84.72C185.536 84.72 190.144 82.704 192.52 77.952V84H199.576V58.8C199.576 50.448 192.376 47.28 184.6 47.28C176.68 47.28 169.192 50.808 169.192 60.096H176.68C176.68 55.416 179.92 53.04 184.6 53.04C188.992 53.04 192.376 54.984 192.376 58.512C192.376 66.72 168.112 58.944 168.112 74.496C168.112 81.624 173.944 84.72 180.352 84.72ZM175.456 74.064C175.456 68.016 186.4 69.528 192.52 66.576V69.168C192.52 75.432 187.336 78.672 181.792 78.672C178.12 78.672 175.456 77.16 175.456 74.064ZM207.57 84H226.002C233.49 84 238.098 80.544 238.098 73.632C238.098 69.096 235.578 66.216 231.618 64.92C234.714 63.624 236.586 61.176 236.586 57.36C236.586 51.096 232.05 48 225.426 48H207.57V84ZM223.338 53.472C227.802 53.472 229.674 54.912 229.674 58.152C229.674 61.176 227.802 62.832 223.338 62.832H214.482V53.472H223.338ZM224.778 68.304C228.81 68.304 230.898 70.104 230.898 73.416C230.898 76.728 228.81 78.528 224.778 78.528H214.482V68.304H224.778ZM255.524 84.72C260.708 84.72 265.316 82.704 267.692 77.952V84H274.748V58.8C274.748 50.448 267.548 47.28 259.772 47.28C251.852 47.28 244.364 50.808 244.364 60.096H251.852C251.852 55.416 255.092 53.04 259.772 53.04C264.164 53.04 267.548 54.984 267.548 58.512C267.548 66.72 243.284 58.944 243.284 74.496C243.284 81.624 249.116 84.72 255.524 84.72ZM250.628 74.064C250.628 68.016 261.572 69.528 267.692 66.576V69.168C267.692 75.432 262.508 78.672 256.964 78.672C253.292 78.672 250.628 77.16 250.628 74.064ZM303.982 30C303.982 34.032 301.75 35.688 298.87 35.688C296.206 35.688 293.83 34.032 293.83 30H288.07C288.07 36.768 292.462 40.8 298.87 40.8C305.35 40.8 309.742 36.768 309.742 30H303.982ZM315.286 84V48H306.142L289.654 76.728V48H282.742V84H291.886L308.374 55.272V84H315.286Z" fill="white"/>
</g>
<defs>
<clipPath id="clip0">
<rect width="377" height="132" fill="white"/>
</clipPath>
</defs>
</svg>
