<svg width="440" height="110" viewBox="0 0 440 110" fill="none" xmlns="http://www.w3.org/2000/svg">
<path d="M434 44.5281C434 44.5281 387.092 17.2448 364.383 4.0416C359.828 1.39087 354.661 0 349.405 0H13.677C6.11761 0 0 6.15814 0 13.7676V96.2324C0 103.832 6.11761 110 13.677 110H349.255C354.511 110 359.668 108.609 364.213 105.968C386.952 92.7653 434 65.4719 434 65.4719C442 60.8054 442 49.1845 434 44.5281Z" fill="#40E687"/>
<path d="M44.4833 78.032L58.6673 38H51.4673L41.0993 68.168L30.6593 38H23.4593L37.7153 77.96C35.4113 83.576 32.9633 86.24 28.4273 86.24C26.6993 86.24 25.0433 85.88 23.6753 85.448V91.784C25.0433 92.216 27.0593 92.576 29.0753 92.576C37.9313 92.576 41.4593 86.6 44.4833 78.032ZM87.9857 52.328H95.4737C94.6097 43.328 87.1937 37.28 77.6897 37.28C67.3937 37.28 59.7617 44.984 59.7617 56C59.7617 67.016 67.3937 74.72 77.6897 74.72C87.4817 74.72 95.0417 68.384 95.6177 58.88H88.1297C87.4097 64.856 82.9457 68.096 77.6897 68.096C71.5697 68.096 66.9617 63.272 66.9617 56C66.9617 48.728 71.5697 43.904 77.6897 43.904C82.8737 43.904 87.2657 46.856 87.9857 52.328ZM108.829 38H101.629V74H108.829V55.064L126.037 74H135.181L116.965 54.416L133.885 38H124.309L108.829 53.984V38ZM152.728 74.72C163.168 74.72 170.944 67.016 170.944 56C170.944 44.984 163.168 37.28 152.728 37.28C142.288 37.28 134.512 44.984 134.512 56C134.512 67.016 142.288 74.72 152.728 74.72ZM152.728 68.096C146.464 68.096 141.712 63.272 141.712 56C141.712 48.728 146.464 43.904 152.728 43.904C158.992 43.904 163.744 48.728 163.744 56C163.744 63.272 158.992 68.096 152.728 68.096ZM184.141 92V68.6C186.949 72.416 191.125 74.72 195.949 74.72C205.813 74.72 213.229 67.016 213.229 56C213.229 44.984 205.813 37.28 195.949 37.28C191.125 37.28 186.949 39.584 184.141 43.4V38H176.941V92H184.141ZM195.085 68.096C188.821 68.096 184.141 63.272 184.141 56C184.141 48.728 188.821 43.904 195.085 43.904C201.349 43.904 206.029 48.728 206.029 56C206.029 63.272 201.349 68.096 195.085 68.096ZM251.854 58.448C251.926 57.656 251.998 56.864 251.998 56C251.998 44.984 244.51 37.28 234.286 37.28C224.062 37.28 216.574 44.984 216.574 56C216.574 67.016 224.062 74.72 234.286 74.72C242.566 74.72 248.83 70.616 251.062 63.2H243.286C241.846 66.44 238.966 68.384 234.574 68.384C228.526 68.384 224.494 64.712 223.63 58.448H251.854ZM234.286 43.616C240.046 43.616 244.006 47.216 244.87 53.264H223.702C224.566 47.216 228.454 43.616 234.286 43.616ZM265.219 74V59.096H282.499V74H289.699V38H282.499V52.544H265.219V38H258.019V74H265.219ZM330.892 74V38H321.748L305.26 66.728V38H298.348V74H307.492L323.98 45.272V74H330.892ZM372.135 58.448C372.207 57.656 372.279 56.864 372.279 56C372.279 44.984 364.791 37.28 354.567 37.28C344.343 37.28 336.855 44.984 336.855 56C336.855 67.016 344.343 74.72 354.567 74.72C362.847 74.72 369.111 70.616 371.343 63.2H363.567C362.127 66.44 359.247 68.384 354.855 68.384C348.807 68.384 344.775 64.712 343.911 58.448H372.135ZM354.567 43.616C360.327 43.616 364.287 47.216 365.151 53.264H343.983C344.847 47.216 348.735 43.616 354.567 43.616Z" fill="white"/>
</svg>
