<svg width="241" height="126" viewBox="0 0 241 126" fill="none" xmlns="http://www.w3.org/2000/svg">
<path d="M195.934 14.5759C191.564 14.2751 187.305 14.5658 183.225 15.3678C173.186 17.3427 162.777 15.3077 154.147 9.80412C144.418 3.59885 132.879 0 120.5 0C108.121 0 96.5723 3.59885 86.8531 9.7941C78.2138 15.2976 67.8146 17.3326 57.7755 15.3578C53.6958 14.5558 49.4462 14.2751 45.0665 14.5658C21.2185 16.1898 1.90011 35.4272 0.140259 59.3159C-1.95957 87.786 20.4686 111.544 48.4162 111.544C51.626 111.544 54.7657 111.234 57.8055 110.632C67.8346 108.657 78.2238 110.712 86.8431 116.206C96.5722 122.411 108.111 126 120.49 126C132.869 126 144.418 122.401 154.137 116.206C162.757 110.702 173.146 108.647 183.175 110.632C186.215 111.234 189.355 111.544 192.564 111.544C220.522 111.544 242.94 87.786 240.84 59.3159C239.1 35.4272 219.782 16.1898 195.934 14.5759Z" fill="#BCEC30"/>
<path d="M52.7646 84.032L66.9486 44H59.7486L49.3806 74.168L38.9406 44H31.7406L45.9966 83.96C43.6926 89.576 41.2446 92.24 36.7086 92.24C34.9806 92.24 33.3246 91.88 31.9566 91.448V97.784C33.3246 98.216 35.3406 98.576 37.3566 98.576C46.2126 98.576 49.7406 92.6 52.7646 84.032ZM92.1629 60.128C90.7949 60.488 88.6349 60.992 85.1069 60.992C79.2029 60.992 75.9629 58.616 75.9629 52.136V44H68.7629V52.208C68.7629 63.08 73.9469 67.616 84.5309 67.616C87.0509 67.616 90.1469 67.256 92.1629 66.608V80H99.3629V44H92.1629V60.128ZM140.485 80V44H131.341L114.853 72.728V44H107.941V80H117.085L133.573 51.272V80H140.485ZM174.673 58.328H182.161C181.297 49.328 173.881 43.28 164.377 43.28C154.081 43.28 146.449 50.984 146.449 62C146.449 73.016 154.081 80.72 164.377 80.72C174.169 80.72 181.729 74.384 182.305 64.88H174.817C174.097 70.856 169.633 74.096 164.377 74.096C158.257 74.096 153.649 69.272 153.649 62C153.649 54.728 158.257 49.904 164.377 49.904C169.561 49.904 173.953 52.856 174.673 58.328ZM217.332 67.904C217.332 60.776 212.22 55.88 203.508 55.88H195.516V44H188.316V80H203.58C212.58 80 217.332 75.032 217.332 67.904ZM202.932 61.928C207.828 61.928 210.132 63.872 210.132 67.832C210.132 71.72 207.828 73.952 202.932 73.952H195.516V61.928H202.932Z" fill="white"/>
</svg>
