<svg width="339" height="110" viewBox="0 0 339 110" fill="none" xmlns="http://www.w3.org/2000/svg">
<g clip-path="url(#clip0)">
<path d="M38.7925 110H300.067C306.179 110 311.83 106.724 314.886 101.392L336.828 63.1595C339.724 58.1096 339.724 51.8803 336.828 46.8304L314.886 8.598C311.82 3.27591 306.179 0 300.067 0H38.7925C32.6806 0 27.0297 3.27591 23.9738 8.60808L2.29193 46.397C-0.763976 51.719 -0.763976 58.2809 2.29193 63.603L23.9838 101.392C27.0297 106.714 32.6806 110 38.7925 110Z" fill="#AD61FF"/>
<path d="M46.5514 73V43.624H62.8234V73H70.0234V37H39.3514V73H46.5514ZM111.382 57.448C111.453 56.656 111.526 55.864 111.526 55C111.526 43.984 104.038 36.28 93.8135 36.28C83.5895 36.28 76.1015 43.984 76.1015 55C76.1015 66.016 83.5895 73.72 93.8135 73.72C102.094 73.72 108.358 69.616 110.59 62.2H102.814C101.374 65.44 98.4935 67.384 94.1015 67.384C88.0535 67.384 84.0215 63.712 83.1575 57.448H111.382ZM93.8135 42.616C99.5735 42.616 103.534 46.216 104.398 52.264H83.2295C84.0935 46.216 87.9815 42.616 93.8135 42.616ZM138.932 53.128C137.564 53.488 135.404 53.992 131.876 53.992C125.972 53.992 122.732 51.616 122.732 45.136V37H115.532V45.208C115.532 56.08 120.716 60.616 131.3 60.616C133.82 60.616 136.916 60.256 138.932 59.608V73H146.132V37H138.932V53.128ZM187.327 57.448C187.399 56.656 187.471 55.864 187.471 55C187.471 43.984 179.983 36.28 169.759 36.28C159.535 36.28 152.047 43.984 152.047 55C152.047 66.016 159.535 73.72 169.759 73.72C178.039 73.72 184.303 69.616 186.535 62.2H178.759C177.319 65.44 174.439 67.384 170.047 67.384C163.999 67.384 159.967 63.712 159.103 57.448H187.327ZM169.759 42.616C175.519 42.616 179.479 46.216 180.343 52.264H159.175C160.039 46.216 163.927 42.616 169.759 42.616ZM200.692 73V58.096H217.972V73H225.172V37H217.972V51.544H200.692V37H193.492V73H200.692ZM262.836 60.904C262.836 53.776 257.724 48.88 249.012 48.88H241.02V37H233.82V73H249.084C258.084 73 262.836 68.032 262.836 60.904ZM248.436 54.928C253.332 54.928 255.636 56.872 255.636 60.832C255.636 64.72 253.332 66.952 248.436 66.952H241.02V54.928H248.436ZM301.139 57.448C301.211 56.656 301.283 55.864 301.283 55C301.283 43.984 293.795 36.28 283.571 36.28C273.347 36.28 265.859 43.984 265.859 55C265.859 66.016 273.347 73.72 283.571 73.72C291.851 73.72 298.115 69.616 300.347 62.2H292.571C291.131 65.44 288.251 67.384 283.859 67.384C277.811 67.384 273.779 63.712 272.915 57.448H301.139ZM283.571 42.616C289.331 42.616 293.291 46.216 294.155 52.264H272.987C273.851 46.216 277.739 42.616 283.571 42.616Z" fill="white"/>
</g>
<defs>
<clipPath id="clip0">
<rect width="339" height="110" fill="white"/>
</clipPath>
</defs>
</svg>
