<svg width="378" height="109" viewBox="0 0 378 109" fill="none" xmlns="http://www.w3.org/2000/svg">
<path d="M323.795 109H54.2053C24.2731 109 0 84.709 0 54.7547V54.2453C0 24.291 24.2731 0 54.2053 0H323.795C353.727 0 378 24.291 378 54.2453V54.7547C378 84.709 353.727 109 323.795 109Z" fill="#00C1FF"/>
<path d="M40.464 67.376V83.72H47.088V74H73.512V83.72H80.136V67.376H75.096V38H47.376C47.232 59.096 45.792 63.992 43.992 67.376H40.464ZM53.136 58.808C53.568 55.568 53.856 51.104 53.928 44.624H67.896V67.376H51.264C51.984 65.576 52.56 62.984 53.136 58.808ZM100.939 74.72C111.379 74.72 119.155 67.016 119.155 56C119.155 44.984 111.379 37.28 100.939 37.28C90.4986 37.28 82.7226 44.984 82.7226 56C82.7226 67.016 90.4986 74.72 100.939 74.72ZM100.939 68.096C94.6746 68.096 89.9226 63.272 89.9226 56C89.9226 48.728 94.6746 43.904 100.939 43.904C107.203 43.904 111.955 48.728 111.955 56C111.955 63.272 107.203 68.096 100.939 68.096ZM150.712 52.328H158.2C157.336 43.328 149.92 37.28 140.416 37.28C130.12 37.28 122.488 44.984 122.488 56C122.488 67.016 130.12 74.72 140.416 74.72C150.208 74.72 157.768 68.384 158.344 58.88H150.856C150.136 64.856 145.672 68.096 140.416 68.096C134.296 68.096 129.688 63.272 129.688 56C129.688 48.728 134.296 43.904 140.416 43.904C145.6 43.904 149.992 46.856 150.712 52.328ZM177.851 74V44.624H189.515V38H158.987V44.624H170.651V74H177.851ZM226.681 74V38H217.537L201.049 66.728V38H194.137V74H203.281L219.769 45.272V74H226.681ZM242.508 74V44.624H258.996V38H235.308V74H242.508ZM273.77 74.72C278.954 74.72 283.562 72.704 285.938 67.952V74H292.994V48.8C292.994 40.448 285.794 37.28 278.018 37.28C270.098 37.28 262.61 40.808 262.61 50.096H270.098C270.098 45.416 273.338 43.04 278.018 43.04C282.41 43.04 285.794 44.984 285.794 48.512C285.794 56.72 261.53 48.944 261.53 64.496C261.53 71.624 267.362 74.72 273.77 74.72ZM268.874 64.064C268.874 58.016 279.818 59.528 285.938 56.576V59.168C285.938 65.432 280.754 68.672 275.21 68.672C271.538 68.672 268.874 67.16 268.874 64.064ZM322.228 20C322.228 24.032 319.996 25.688 317.116 25.688C314.452 25.688 312.076 24.032 312.076 20H306.316C306.316 26.768 310.708 30.8 317.116 30.8C323.596 30.8 327.988 26.768 327.988 20H322.228ZM333.532 74V38H324.388L307.9 66.728V38H300.988V74H310.132L326.62 45.272V74H333.532Z" fill="white"/>
</svg>
