<svg width="370" height="232" viewBox="0 0 370 232" fill="none" xmlns="http://www.w3.org/2000/svg">
<g id="Forms / Bang" clip-path="url(#clip0)">
<path id="Vector" d="M360.461 108.469L292.808 86.4516L316.071 44.9548C321.215 35.77 317.15 30.6028 307.022 33.4612L219.021 58.3073L192.042 5.66682C188.167 -1.88894 181.834 -1.88894 177.958 5.66682L150.979 58.3173L62.9786 33.4712C52.8501 30.6128 48.7847 35.7799 53.9289 44.9648L77.2025 86.4516L9.53928 108.469C-3.18627 112.607 -3.18627 119.383 9.53928 123.531L77.1925 145.548L53.9289 187.045C48.7847 196.23 52.8501 201.397 62.9786 198.539L150.979 173.693L177.958 226.343C181.834 233.899 188.167 233.899 192.042 226.343L219.021 173.693L307.022 198.539C317.15 201.397 321.215 196.23 316.071 187.045L292.808 145.548L360.461 123.531C373.186 119.393 373.186 112.617 360.461 108.469Z" fill="#40E687"/>
<path id="BOOM" d="M96.909 145H114.684C124.401 145 131.037 139.154 131.037 128.41V126.83C131.037 119.72 127.403 115.138 121.873 113.005C126.534 110.951 129.457 107.159 129.457 101.076V100.286C129.457 90.806 122.821 85.75 113.104 85.75H96.909V145ZM112.314 93.018C118.239 93.018 121.557 95.388 121.557 100.918V101.708C121.557 107.87 118.081 110.319 112.472 110.319H104.809V93.018H112.314ZM113.894 117.508C119.661 117.508 123.137 120.115 123.137 126.909V127.699C123.137 134.73 119.819 137.732 113.894 137.732H104.809V117.508H113.894ZM155.013 145.79C165.915 145.79 172.472 139.154 172.472 125.566V105.184C172.472 91.675 165.915 84.96 155.013 84.96C144.111 84.96 137.554 91.675 137.554 105.184V125.566C137.554 139.154 144.111 145.79 155.013 145.79ZM155.013 138.522C149.009 138.522 145.454 135.125 145.454 125.566V105.184C145.454 95.704 149.088 92.228 155.013 92.228C161.017 92.228 164.572 95.704 164.572 105.184V125.566C164.572 135.125 160.938 138.522 155.013 138.522ZM198.067 145.79C208.969 145.79 215.526 139.154 215.526 125.566V105.184C215.526 91.675 208.969 84.96 198.067 84.96C187.165 84.96 180.608 91.675 180.608 105.184V125.566C180.608 139.154 187.165 145.79 198.067 145.79ZM198.067 138.522C192.063 138.522 188.508 135.125 188.508 125.566V105.184C188.508 95.704 192.142 92.228 198.067 92.228C204.071 92.228 207.626 95.704 207.626 105.184V125.566C207.626 135.125 203.992 138.522 198.067 138.522ZM253.209 145L265.217 91.675V145H273.117V85.75H259.371L248.785 134.572L237.962 85.75H224.453V145H231.721V91.438L243.65 145H253.209Z" fill="white"/>
</g>
<defs>
<clipPath id="clip0">
<rect width="370" height="232" fill="white"/>
</clipPath>
</defs>
</svg>
