<svg width="267" height="151" viewBox="0 0 267 151" fill="none" xmlns="http://www.w3.org/2000/svg">
<g id="Forms / Bubble">
<path id="Vector" d="M207.498 0H59.5124C26.6479 0 0 26.5725 0 59.3439V59.8929C0 92.6643 26.6479 119.237 59.5124 119.237H62.2253V141.577C62.2253 150.86 68.2316 153.785 75.5692 148.075L112.598 119.247H207.488C240.352 119.247 267 92.6743 267 59.9029V59.3539C267.01 26.5725 240.372 0 207.498 0Z" fill="#D97DFF"/>
<path id="sorry" d="M79.3717 68.861C79.3717 52.745 55.2767 59.776 55.2767 51.007C55.2767 47.847 58.1207 46.03 62.3867 46.03C66.9687 46.03 70.3657 48.795 70.3657 52.587H78.5817C78.5817 45.319 71.6297 39.71 62.3867 39.71C53.8547 39.71 47.2977 44.134 47.2977 51.323C47.2977 67.202 71.2347 59.618 71.2347 69.177C71.2347 72.732 68.3907 74.549 63.5717 74.549C58.5157 74.549 54.7237 72.1 54.7237 67.281H46.5077C46.5077 75.892 53.8547 80.79 63.5717 80.79C72.7357 80.79 79.3717 76.287 79.3717 68.861ZM103.75 80.79C115.205 80.79 123.737 72.337 123.737 60.25C123.737 48.163 115.205 39.71 103.75 39.71C92.2953 39.71 83.7633 48.163 83.7633 60.25C83.7633 72.337 92.2953 80.79 103.75 80.79ZM103.75 73.522C96.8773 73.522 91.6633 68.229 91.6633 60.25C91.6633 52.271 96.8773 46.978 103.75 46.978C110.623 46.978 115.837 52.271 115.837 60.25C115.837 68.229 110.623 73.522 103.75 73.522ZM138.413 40.5H130.513V80H138.413V60.171C138.413 52.034 142.837 47.926 150.421 47.926C152.001 47.926 153.423 48.163 154.608 48.558V39.947C153.976 39.789 153.028 39.71 152.08 39.71C146.076 39.71 141.257 42.475 138.413 47.61V40.5ZM168.275 40.5H160.375V80H168.275V60.171C168.275 52.034 172.699 47.926 180.283 47.926C181.863 47.926 183.285 48.163 184.47 48.558V39.947C183.838 39.789 182.89 39.71 181.942 39.71C175.938 39.71 171.119 42.475 168.275 47.61V40.5ZM207.933 84.424L223.496 40.5H215.596L204.22 73.601L192.765 40.5H184.865L200.507 84.345C197.979 90.507 195.293 93.43 190.316 93.43C188.42 93.43 186.603 93.035 185.102 92.561V99.513C186.603 99.987 188.815 100.382 191.027 100.382C200.744 100.382 204.615 93.825 207.933 84.424Z" fill="white"/>
</g>
</svg>
