<svg width="220" height="174" viewBox="0 0 220 174" fill="none" xmlns="http://www.w3.org/2000/svg">
<g id="Forms / Cat" clip-path="url(#clip0)">
<path id="Vector" d="M208.203 65.1826L212.215 11.1633C213.103 -0.748931 206.915 -3.57471 198.481 4.86268L165.115 38.2428C147.179 32.8808 127.407 31.0436 109.99 31.0436C92.5733 31.0436 72.801 32.8908 54.8653 38.2428L21.5089 4.86268C13.075 -3.58469 6.89683 -0.748931 7.77516 11.1633L11.7875 65.1826C4.42156 74.8781 0 87.1198 0 102.517C0 160.81 63.4289 174 110 174C156.561 174 220 160.81 220 102.517C219.99 87.1198 215.568 74.8781 208.203 65.1826Z" fill="#FF9E00"/>
<path id="Kitty" d="M46.8944 69.75H38.9944V129H46.8944V99.849L64.3534 129H73.8334L55.1104 98.111L72.8854 69.75H64.1954L46.8944 98.585V69.75ZM81.9103 80.889C84.9913 80.889 87.1243 78.598 87.1243 75.596C87.1243 72.594 84.9913 70.382 81.9103 70.382C78.9083 70.382 76.6963 72.594 76.6963 75.596C76.6963 78.598 78.9083 80.889 81.9103 80.889ZM85.8603 129V89.5H77.9603V129H85.8603ZM105.668 115.491V96.452H117.044V89.5H105.668V77.808H97.768V89.5H91.29V96.452H97.768V115.965C97.768 126.709 103.298 129.79 110.882 129.79C113.173 129.79 115.622 129.316 117.044 128.842V121.811C115.701 122.285 114.121 122.522 112.383 122.522C107.801 122.522 105.668 120.389 105.668 115.491ZM134.45 115.491V96.452H145.826V89.5H134.45V77.808H126.55V89.5H120.072V96.452H126.55V115.965C126.55 126.709 132.08 129.79 139.664 129.79C141.955 129.79 144.404 129.316 145.826 128.842V121.811C144.483 122.285 142.903 122.522 141.165 122.522C136.583 122.522 134.45 120.389 134.45 115.491ZM170.816 133.424L186.379 89.5H178.479L167.103 122.601L155.648 89.5H147.748L163.39 133.345C160.862 139.507 158.176 142.43 153.199 142.43C151.303 142.43 149.486 142.035 147.985 141.561V148.513C149.486 148.987 151.698 149.382 153.91 149.382C163.627 149.382 167.498 142.825 170.816 133.424Z" fill="white"/>
</g>
<defs>
<clipPath id="clip0">
<rect width="220" height="174" fill="white"/>
</clipPath>
</defs>
</svg>
