<svg width="284" height="148" viewBox="0 0 284 148" fill="none" xmlns="http://www.w3.org/2000/svg">
<g id="Forms / Cloud">
<path id="Vector" d="M225.287 24.0782C214.063 24.0782 203.569 27.2301 194.652 32.6861C185.066 13.3258 165.096 0 142 0C118.904 0 98.9337 13.3258 89.3479 32.696C80.4311 27.2401 69.9366 24.0882 58.7132 24.0882C26.2911 24.0782 0 46.1914 0 74.9276C0 134.515 81.8889 148 142 148C202.111 148 284 134.525 284 74.9276C284 46.1914 257.719 24.0782 225.287 24.0782Z" fill="#00C1FF"/>
<path id="cloud" d="M77.3607 79.221H85.5767C84.6287 69.346 76.4917 62.71 66.0637 62.71C54.7667 62.71 46.3927 71.163 46.3927 83.25C46.3927 95.337 54.7667 103.79 66.0637 103.79C76.8077 103.79 85.1027 96.838 85.7347 86.41H77.5187C76.7287 92.967 71.8307 96.522 66.0637 96.522C59.3487 96.522 54.2927 91.229 54.2927 83.25C54.2927 75.271 59.3487 69.978 66.0637 69.978C71.7517 69.978 76.5707 73.217 77.3607 79.221ZM100.425 103V43.75H92.5247V103H100.425ZM127.184 103.79C138.639 103.79 147.171 95.337 147.171 83.25C147.171 71.163 138.639 62.71 127.184 62.71C115.729 62.71 107.197 71.163 107.197 83.25C107.197 95.337 115.729 103.79 127.184 103.79ZM127.184 96.522C120.311 96.522 115.097 91.229 115.097 83.25C115.097 75.271 120.311 69.978 127.184 69.978C134.057 69.978 139.271 75.271 139.271 83.25C139.271 91.229 134.057 96.522 127.184 96.522ZM161.452 84.909V63.5H153.552V86.489C153.552 98.26 159.951 103.79 168.404 103.79C173.539 103.79 177.726 101.341 180.175 96.68V103H188.075V63.5H180.175V84.909C180.175 92.809 176.62 96.838 170.853 96.838C165.007 96.838 161.452 92.809 161.452 84.909ZM213.81 62.71C202.987 62.71 194.85 71.163 194.85 83.25C194.85 95.337 202.987 103.79 213.81 103.79C219.103 103.79 223.685 101.262 226.766 97.075V103H234.666V43.75H226.766V69.425C223.685 65.238 219.103 62.71 213.81 62.71ZM214.758 69.978C221.631 69.978 226.766 75.271 226.766 83.25C226.766 91.229 221.631 96.522 214.758 96.522C207.885 96.522 202.75 91.229 202.75 83.25C202.75 75.271 207.885 69.978 214.758 69.978Z" fill="white"/>
</g>
</svg>
