<svg width="296" height="193" viewBox="0 0 296 193" fill="none" xmlns="http://www.w3.org/2000/svg">
<g id="Forms / Crown">
<path id="Vector" d="M296 44.2206C296 32.3751 286.383 22.7706 274.522 22.7706C262.66 22.7706 253.043 32.3751 253.043 44.2206C253.043 50.3535 255.628 55.8661 259.755 59.7679C242.624 90.062 196.742 78.3265 198.305 42.3698C207.932 40.2488 215.135 31.6948 215.135 21.44C215.135 9.60448 205.528 0 193.667 0C181.806 0 172.188 9.60448 172.188 21.45C172.188 29.4337 176.566 36.387 183.048 40.0787C177.578 55.0657 166.057 68.0317 148.005 68.0317C129.973 68.0317 118.462 55.0957 112.992 40.1387C119.534 36.467 123.952 29.4737 123.952 21.45C123.952 9.60448 114.345 0 102.484 0C90.6223 0 81.005 9.60448 81.005 21.45C81.005 31.6548 88.1478 40.1687 97.6949 42.3397C99.2878 78.3265 53.3656 90.072 36.2449 59.7579C40.3623 55.846 42.9469 50.3435 42.9469 44.2206C42.9469 32.3751 33.3297 22.7706 21.4684 22.7706C9.6072 22.7706 0 32.3751 0 44.2206C0 56.0661 9.61722 65.6706 21.4785 65.6706L35.4334 153.251C40.0016 182.045 93.257 193 148.015 193C202.773 193 255.998 182.045 260.567 153.251L274.542 65.6706C286.393 65.6606 296 56.0561 296 44.2206Z" fill="#FF6D00"/>
<path id="super" d="M82.4167 131.861C82.4167 115.745 58.3217 122.776 58.3217 114.007C58.3217 110.847 61.1657 109.03 65.4317 109.03C70.0137 109.03 73.4107 111.795 73.4107 115.587H81.6267C81.6267 108.319 74.6747 102.71 65.4317 102.71C56.8997 102.71 50.3427 107.134 50.3427 114.323C50.3427 130.202 74.2797 122.618 74.2797 132.177C74.2797 135.732 71.4357 137.549 66.6167 137.549C61.5607 137.549 57.7687 135.1 57.7687 130.281H49.5527C49.5527 138.892 56.8997 143.79 66.6167 143.79C75.7807 143.79 82.4167 139.287 82.4167 131.861ZM97.2363 124.909V103.5H89.3363V126.489C89.3363 138.26 95.7353 143.79 104.188 143.79C109.323 143.79 113.51 141.341 115.959 136.68V143H123.859V103.5H115.959V124.909C115.959 132.809 112.404 136.838 106.637 136.838C100.791 136.838 97.2363 132.809 97.2363 124.909ZM141.457 162.75V137.075C144.538 141.262 149.12 143.79 154.413 143.79C165.236 143.79 173.373 135.337 173.373 123.25C173.373 111.163 165.236 102.71 154.413 102.71C149.12 102.71 144.538 105.238 141.457 109.425V103.5H133.557V162.75H141.457ZM153.465 136.522C146.592 136.522 141.457 131.229 141.457 123.25C141.457 115.271 146.592 109.978 153.465 109.978C160.338 109.978 165.473 115.271 165.473 123.25C165.473 131.229 160.338 136.522 153.465 136.522ZM215.948 125.936C216.027 125.067 216.106 124.198 216.106 123.25C216.106 111.163 207.89 102.71 196.672 102.71C185.454 102.71 177.238 111.163 177.238 123.25C177.238 135.337 185.454 143.79 196.672 143.79C205.757 143.79 212.63 139.287 215.079 131.15H206.547C204.967 134.705 201.807 136.838 196.988 136.838C190.352 136.838 185.928 132.809 184.98 125.936H215.948ZM196.672 109.662C202.992 109.662 207.337 113.612 208.285 120.248H185.059C186.007 113.612 190.273 109.662 196.672 109.662ZM230.807 103.5H222.907V143H230.807V123.171C230.807 115.034 235.231 110.926 242.815 110.926C244.395 110.926 245.817 111.163 247.002 111.558V102.947C246.37 102.789 245.422 102.71 244.474 102.71C238.47 102.71 233.651 105.475 230.807 110.61V103.5Z" fill="white"/>
</g>
</svg>
