<svg width="218" height="170" viewBox="0 0 218 170" fill="none" xmlns="http://www.w3.org/2000/svg">
<g id="Forms / Love">
<path id="Vector" d="M167.472 0C127.248 0 109.34 29.2625 109.34 29.2625C109.34 29.2625 90.7217 0 50.5375 0C21.9859 0 0 21.6496 0 52.5905C0 111.375 88.9029 170 109 170C129.107 170 218 111.385 218 52.5905C218.01 21.6496 196.024 0 167.472 0Z" fill="#FF4545"/>
<path id="love" d="M50.912 100V40.75H43.012V100H50.912ZM77.6717 100.79C89.1267 100.79 97.6587 92.337 97.6587 80.25C97.6587 68.163 89.1267 59.71 77.6717 59.71C66.2167 59.71 57.6847 68.163 57.6847 80.25C57.6847 92.337 66.2167 100.79 77.6717 100.79ZM77.6717 93.522C70.7987 93.522 65.5847 88.229 65.5847 80.25C65.5847 72.271 70.7987 66.978 77.6717 66.978C84.5447 66.978 89.7587 72.271 89.7587 80.25C89.7587 88.229 84.5447 93.522 77.6717 93.522ZM123.868 100L137.298 60.5H129.082L118.338 93.68L107.594 60.5H99.3779L112.808 100H123.868ZM177.721 82.936C177.8 82.067 177.879 81.198 177.879 80.25C177.879 68.163 169.663 59.71 158.445 59.71C147.227 59.71 139.011 68.163 139.011 80.25C139.011 92.337 147.227 100.79 158.445 100.79C167.53 100.79 174.403 96.287 176.852 88.15H168.32C166.74 91.705 163.58 93.838 158.761 93.838C152.125 93.838 147.701 89.809 146.753 82.936H177.721ZM158.445 66.662C164.765 66.662 169.11 70.612 170.058 77.248H146.832C147.78 70.612 152.046 66.662 158.445 66.662Z" fill="white"/>
</g>
</svg>
