<svg width="183" height="174" viewBox="0 0 183 174" fill="none" xmlns="http://www.w3.org/2000/svg">
<g id="Forms / Poop" clip-path="url(#clip0)">
<path id="Vector" d="M149.99 82.8062C155.863 76.4457 158.21 70.7542 158.21 61.4781C158.21 47.8185 144.346 34.9477 124.92 30.744C109.259 27.3591 101.298 21.9971 108.21 7.47877C111.017 1.57759 105.233 -1.35802 98.3418 0.579081C76.1984 6.7898 52.1473 20.3595 52.1473 47.0796C32.451 49.6957 11.3963 62.5764 11.3963 83.0958C11.3963 90.8043 13.5837 95.6271 17.9384 101.488C8.08029 107.529 0 119.352 0 131.304C0 163.895 48.1621 174 91.52 174C136.816 174 183 158.064 183 122.786C183 104.294 169.137 89.5561 149.99 82.8062Z" fill="#FF9ACC"/>
<path id="No" d="M65.3271 68.75H52.1341V128H59.4021V73.727L74.0171 128H87.0521V68.75H79.7841V122.391L65.3271 68.75ZM113.796 128.79C125.251 128.79 133.783 120.337 133.783 108.25C133.783 96.163 125.251 87.71 113.796 87.71C102.341 87.71 93.8087 96.163 93.8087 108.25C93.8087 120.337 102.341 128.79 113.796 128.79ZM113.796 121.522C106.923 121.522 101.709 116.229 101.709 108.25C101.709 100.271 106.923 94.978 113.796 94.978C120.669 94.978 125.883 100.271 125.883 108.25C125.883 116.229 120.669 121.522 113.796 121.522Z" fill="white"/>
</g>
<defs>
<clipPath id="clip0">
<rect width="183" height="174" fill="white"/>
</clipPath>
</defs>
</svg>
