<svg width="210" height="179" viewBox="0 0 210 179" fill="none" xmlns="http://www.w3.org/2000/svg">
<path d="M28.2121 84.8506L161.798 108.405C164.923 108.956 168.108 107.791 170.151 105.34L184.817 87.7707C186.752 85.4498 187.314 82.2649 186.289 79.4219L178.517 57.896C177.429 54.8984 174.84 52.715 171.715 52.164L38.129 28.6091C35.0041 28.0581 31.8195 29.2236 29.7764 31.6743L15.2839 49.0406C13.2417 51.4862 12.6501 54.8412 13.7327 57.8378L21.4167 79.1144C22.4942 82.1101 25.0872 84.2996 28.2121 84.8506Z" fill="#D97DFF"/>
<path d="M49.8334 50.3972L46.1521 49.7481L42.9066 68.1544L46.5878 68.8035L48.295 59.1218L55.3861 70.3549L60.0613 71.1793L52.5132 59.524L62.6442 52.6561L57.7481 51.7928L48.3923 58.5696L49.8334 50.3972ZM64.2542 81.4079L66.3637 69.4438C67.4554 71.648 69.3828 73.2025 71.8493 73.6374C76.8926 74.5267 81.3789 71.2563 82.372 65.6239C83.3651 59.9916 80.268 55.3841 75.2246 54.4948C72.7582 54.0599 70.4153 54.8614 68.6356 56.5593L69.1224 53.7984L65.4412 53.1493L60.5729 80.7588L64.2542 81.4079ZM72.0047 70.1727C68.802 69.608 66.8441 66.7196 67.4997 63.0016C68.1553 59.2835 70.983 57.239 74.1857 57.8037C77.3884 58.3684 79.3463 61.2568 78.6907 64.9748C78.0351 68.6929 75.2074 70.7374 72.0047 70.1727ZM91.704 78.8843L102.565 59.6952L98.8839 59.0461L90.8631 73.5359L88.245 57.1702L84.5638 56.5211L88.2501 78.2374C86.5658 80.901 85.074 82.0424 82.7548 81.6335C81.8713 81.4777 81.0571 81.1443 80.3966 80.8001L79.8254 84.0396C80.4859 84.3838 81.4842 84.7497 82.5149 84.9314C87.0429 85.7298 89.3854 82.9924 91.704 78.8843ZM109.04 79.8156L111.689 64.796L117.652 65.8476L118.249 62.4608L102.641 59.7086L102.044 63.0954L108.007 64.1469L105.359 79.1665L109.04 79.8156ZM125.002 83.0096C130.339 83.9508 135.01 80.7129 136.003 75.0805C136.996 69.4482 133.715 64.8082 128.377 63.867C123.039 62.9258 118.369 66.1637 117.376 71.7961C116.383 77.4284 119.664 82.0684 125.002 83.0096ZM125.599 79.6228C122.396 79.0581 120.401 76.1632 121.057 72.4452C121.713 68.7271 124.577 66.689 127.78 67.2538C130.983 67.8185 132.977 70.7133 132.322 74.4314C131.666 78.1495 128.802 80.1875 125.599 79.6228ZM153.175 59.1298C152.811 61.1913 151.521 61.8368 150.048 61.5771C148.686 61.3369 147.621 60.276 147.984 58.2145L145.039 57.6953C144.429 61.1556 146.311 63.6131 149.587 64.1908C152.9 64.775 155.51 63.1095 156.12 59.6491L153.175 59.1298ZM154.086 87.7584L157.331 69.352L152.656 68.5277L141.636 81.7295L144.226 67.0412L140.692 66.4181L137.447 84.8244L142.122 85.6488L153.142 72.447L150.552 87.1352L154.086 87.7584Z" fill="white"/>
<path d="M169.514 83.6678C166.673 83.8937 163.959 84.4897 161.41 85.3976C155.138 87.6325 148.242 87.3219 142.159 84.6078C135.301 81.5476 127.528 80.3388 119.56 81.5271C111.592 82.7155 104.504 86.1407 98.8428 91.0614C93.8102 95.4332 87.3119 97.7414 80.6604 97.434C77.9574 97.3094 75.1951 97.5367 72.4039 98.1442C57.2095 101.479 46.6215 115.716 47.7819 131.262C49.1634 149.789 65.8806 162.928 83.8698 160.245C85.9358 159.937 87.9269 159.436 89.8258 158.757C96.0917 156.523 102.976 156.848 109.052 159.557C115.91 162.617 123.682 163.819 131.65 162.631C139.618 161.443 146.706 158.018 152.367 153.097C157.387 148.727 163.877 146.407 170.523 146.722C172.537 146.817 174.588 146.716 176.654 146.407C194.65 143.724 206.799 126.279 202.714 108.155C199.301 92.9454 185.02 82.4173 169.514 83.6678Z" fill="#E8BEFC"/>
<mask id="mask0" mask-type="alpha" maskUnits="userSpaceOnUse" x="8" y="25" width="184" height="87">
<path d="M28.2121 84.8506L161.798 108.405C164.923 108.956 168.108 107.791 170.151 105.34L184.817 87.7707C186.752 85.4498 187.314 82.2649 186.289 79.4219L178.517 57.896C177.429 54.8984 174.84 52.715 171.715 52.164L38.129 28.6091C35.0041 28.0581 31.8195 29.2236 29.7764 31.6743L15.2839 49.0406C13.2417 51.4862 12.6501 54.8412 13.7327 57.8378L21.4167 79.1144C22.4942 82.1101 25.0872 84.2996 28.2121 84.8506Z" fill="#AD61FF"/>
</mask>
<g mask="url(#mask0)">
<path d="M169.514 83.6678C166.673 83.8937 163.959 84.4897 161.41 85.3976C155.138 87.6325 148.242 87.3219 142.159 84.6078C135.301 81.5476 127.528 80.3388 119.56 81.5271C111.592 82.7155 104.504 86.1407 98.8428 91.0614C93.8102 95.4332 87.3119 97.7414 80.6604 97.434C77.9574 97.3094 75.1951 97.5367 72.4039 98.1442C57.2095 101.479 46.6215 115.716 47.7819 131.262C49.1634 149.789 65.8806 162.928 83.8698 160.245C85.9358 159.937 87.9269 159.436 89.8258 158.757C96.0917 156.523 102.976 156.848 109.052 159.557C115.91 162.617 123.682 163.819 131.65 162.631C139.618 161.443 146.706 158.018 152.367 153.097C157.387 148.727 163.877 146.407 170.523 146.722C172.537 146.817 174.588 146.716 176.654 146.407C194.65 143.724 206.799 126.279 202.714 108.155C199.301 92.9454 185.02 82.4173 169.514 83.6678Z" fill="#E6A8FF"/>
</g>
<path d="M80.1533 126.887L84.0359 126.308C82.8919 121.708 78.5789 119.146 73.651 119.881C68.3123 120.677 64.9508 125.262 65.8026 130.974C66.6545 136.686 71.2076 140.09 76.5462 139.294C81.6235 138.537 85.0535 134.667 84.6173 129.694L80.7346 130.273C80.8234 133.428 78.7593 135.453 76.034 135.859C72.8607 136.333 70.0983 134.188 69.536 130.417C68.9736 126.646 70.9899 123.789 74.1632 123.316C76.8512 122.915 79.3568 124.106 80.1533 126.887ZM92.3864 136.55L90.1147 121.318L98.552 120.06L100.824 135.292L104.557 134.735L101.773 116.068L85.8691 118.44L88.6531 137.107L92.3864 136.55ZM125.714 131.58L122.93 112.913L118.189 113.62L111.861 129.791L109.64 114.895L106.056 115.43L108.84 134.096L113.581 133.389L119.909 117.218L122.13 132.114L125.714 131.58ZM130.887 111.726L127.154 112.283L129.937 130.95L133.671 130.393L132.206 120.574L142.593 129.062L147.335 128.355L136.375 119.609L143.879 109.789L138.913 110.529L132.123 120.014L130.887 111.726ZM163.828 117.652C163.804 117.236 163.78 116.82 163.713 116.372C162.862 110.66 158.383 107.244 153.082 108.035C147.78 108.825 144.494 113.399 145.345 119.111C146.197 124.823 150.676 128.238 155.977 127.448C160.27 126.808 163.201 124.195 163.785 120.177L159.753 120.779C159.257 122.57 157.914 123.801 155.636 124.14C152.5 124.608 150.126 123.016 149.193 119.835L163.828 117.652ZM153.572 111.32C156.558 110.874 158.89 112.435 159.806 115.504L148.83 117.141C148.81 113.938 150.548 111.771 153.572 111.32ZM173.102 134.053L171.293 121.92C173.044 123.681 175.387 124.553 177.889 124.18C183.003 123.417 186.253 118.849 185.401 113.137C184.549 107.425 180.108 104.004 174.993 104.767C172.492 105.14 170.505 106.657 169.344 108.853L168.927 106.053L165.193 106.61L169.369 134.61L173.102 134.053ZM176.929 120.812C173.681 121.296 170.881 119.157 170.318 115.386C169.756 111.616 171.81 108.753 175.058 108.268C178.306 107.784 181.105 109.923 181.668 113.694C182.23 117.464 180.177 120.328 176.929 120.812Z" fill="white"/>
</svg>
