<svg width="26" height="15" viewBox="0 0 26 15" fill="none" xmlns="http://www.w3.org/2000/svg">
<path fill-rule="evenodd" clip-rule="evenodd" d="M14.5043 14.9373C14.5043 14.9373 14.9643 14.8846 15.2 14.6235C15.4157 14.3843 15.4082 13.933 15.4082 13.933C15.4082 13.933 15.3795 11.8252 16.3284 11.514C17.2635 11.208 18.4642 13.5523 19.7385 14.4538C20.701 15.1353 21.4317 14.9862 21.4317 14.9862L24.8368 14.9373C24.8368 14.9373 26.6173 14.8241 25.7732 13.38C25.7034 13.2617 25.2807 12.3113 23.2421 10.3592C21.1063 8.31579 21.393 8.64629 23.964 5.11113C25.5301 2.9584 26.156 1.64413 25.9602 1.08215C25.7744 0.544615 24.6224 0.687359 24.6224 0.687359L20.7896 0.711793C20.7896 0.711793 20.5053 0.671927 20.2946 0.801811C20.0889 0.929123 19.9554 1.22618 19.9554 1.22618C19.9554 1.22618 19.3495 2.89153 18.5403 4.30868C16.8334 7.2973 16.1513 7.45547 15.872 7.27029C15.2224 6.83692 15.3845 5.53165 15.3845 4.60445C15.3845 1.70714 15.8109 0.499606 14.5554 0.187113C14.1389 0.0829483 13.8322 0.0147914 12.7662 0.00321757C11.3984 -0.0109282 10.2413 0.00836149 9.58547 0.338858C9.14908 0.558761 8.81243 1.05001 9.01816 1.0783C9.27127 1.11302 9.84482 1.23776 10.149 1.6647C10.5418 2.21639 10.5281 3.4535 10.5281 3.4535C10.5281 3.4535 10.7538 6.86392 10.0007 7.28701C9.48448 7.57764 8.77628 6.9848 7.25389 4.27267C6.47461 2.88381 5.8861 1.34835 5.8861 1.34835C5.8861 1.34835 5.77264 1.06158 5.56941 0.907262C5.32378 0.720794 4.9809 0.662925 4.9809 0.662925L1.33888 0.687359C1.33888 0.687359 0.791516 0.702791 0.590775 0.948413C0.412477 1.16574 0.57706 1.61712 0.57706 1.61712C0.57706 1.61712 3.42858 8.4984 6.6579 11.9667C9.61914 15.1456 12.9806 14.9373 12.9806 14.9373H14.5043Z" fill="#5376A4"/>
</svg>
