<svg width="127" height="127" viewBox="0 0 127 127" fill="none" xmlns="http://www.w3.org/2000/svg">
<g clip-path="url(#clip0)">
<path d="M119.885 56.068C99.4898 45.43 82.9409 28.6136 72.614 8.0552C68.1904 -0.757714 60.625 -0.816604 56.0648 7.92638C45.4268 28.3216 28.6104 44.8782 8.05199 55.1975C-0.760926 59.6211 -0.819815 67.1864 7.92317 71.7467C28.3184 82.3847 44.8674 99.201 55.1943 119.759C59.6179 128.572 67.1832 128.631 71.7435 119.888C82.3815 99.4931 99.1978 82.9441 119.756 72.6172C128.569 68.1936 128.628 60.6282 119.885 56.068Z" fill="#C2F5FF"/>
<path d="M74.7521 51.9759C74.811 44.403 70.122 40.47 64.3051 40.4247C58.3785 40.3786 53.6292 44.1832 53.5694 51.8659L53.5412 55.4877L59.0288 55.5305L59.0536 52.3476C59.0938 47.1892 61.1927 45.4494 64.2658 45.4734C67.1743 45.496 69.2999 47.3785 69.2645 51.9332C69.1863 61.9756 53.1282 66.2409 53.0265 79.3015L53.0052 82.0453L75.0655 82.2171L75.1048 77.1684L58.9711 77.0429C60.4675 68.1091 74.6637 63.3353 74.7521 51.9759Z" fill="#091E2A"/>
</g>
<defs>
<clipPath id="clip0">
<rect width="125" height="125" fill="white" transform="translate(1.89355 0.92041) rotate(0.445988)"/>
</clipPath>
</defs>
</svg>
