<svg width="92" height="92" viewBox="0 0 92 92" fill="none" xmlns="http://www.w3.org/2000/svg">
<path d="M79.1433 0.975285C57.6027 7.92531 34.3809 7.92531 12.8403 0.975285C3.60117 -2.00437 -1.66013 3.25693 1.31952 12.4961C8.26955 34.0367 8.26955 57.2585 1.31952 78.799C-1.66013 88.0382 3.60117 93.2995 12.8403 90.3198C34.3809 83.3698 57.6027 83.3698 79.1433 90.3198C88.3824 93.2995 93.6437 88.0382 90.6641 78.799C83.7141 57.2585 83.7141 34.0367 90.6641 12.4961C93.6437 3.25693 88.3824 -2.00437 79.1433 0.975285Z" fill="#D97DFF"/>
<path d="M45.3554 27.3475C45.3554 31.376 43.9051 33.0411 40.4137 33.0411H39.1246V37.5531H45.3554V65.8065H50.7268V25.5212H45.3554V27.3475Z" fill="white"/>
</svg>
