<svg width="94" height="105" viewBox="0 0 94 105" fill="none" xmlns="http://www.w3.org/2000/svg">
<g clip-path="url(#clip0)">
<path d="M19.6802 101.87C8.66121 108.347 0.693327 103.06 0.632782 93.5511C0.568382 83.4366 0.375086 53.0781 0.375086 53.0781C0.375086 53.0781 0.181838 22.7271 0.11739 12.6051C0.056941 3.11108 7.9568 -2.2845 19.0575 4.05916C36.3359 13.9295 88.164 43.563 88.164 43.563C95.0589 47.5038 95.1223 57.4613 88.2781 61.4895C88.2707 61.4896 36.8241 91.7731 19.6802 101.87Z" fill="#C2F5FF"/>
<path d="M32.3149 54.7495C35.9575 54.7263 38.2721 56.4793 38.3004 60.9254L38.3079 62.1039C38.3355 66.4428 36.0441 68.3323 32.4015 68.3555C28.759 68.3787 26.3362 66.4656 26.3082 62.0731L26.2963 60.1983L20.9396 60.2324L20.9546 62.5893C20.9993 69.6066 26.112 73.3239 32.4329 73.2836C38.7003 73.2437 43.7117 69.462 43.6677 62.5519L43.6527 60.1949C43.625 55.856 41.3029 52.9245 37.8118 51.5003C40.6417 50.036 42.4995 47.3457 42.4753 43.5424L42.463 41.614C42.4231 35.3467 37.7948 32.0013 32.1703 32.0371C26.4386 32.0736 21.853 35.4241 21.8926 41.6378L21.9049 43.5663L27.2616 43.5322L27.2524 42.0858C27.2295 38.4969 29.3091 36.9837 32.2017 36.9653C35.0943 36.9468 37.0858 38.4341 37.1094 42.1302L37.1196 43.7372C37.1448 47.7012 35.2806 49.3737 32.2808 49.3928L29.2811 49.4119L29.3152 54.7686L32.3149 54.7495Z" fill="#271907"/>
</g>
<defs>
<clipPath id="clip0">
<rect width="93" height="103.416" fill="white" transform="translate(0.0458984 1.37671) rotate(-0.364803)"/>
</clipPath>
</defs>
</svg>
