<svg width="103" height="92" viewBox="0 0 103 92" fill="none" xmlns="http://www.w3.org/2000/svg">
<g clip-path="url(#clip0)">
<path d="M33.4087 91.7021H69.746C74.8669 91.7021 79.595 88.9653 82.1554 84.5276L100.532 52.6619C102.964 48.451 102.964 43.2648 100.532 39.0538L82.1554 7.2033C79.595 2.76555 74.8669 0.0288086 69.746 0.0288086H33.4087C28.2878 0.0288086 23.5597 2.76555 20.9992 7.2033L2.8344 38.6985C0.27395 43.1363 0.27395 48.6022 2.8344 53.0399L20.9992 84.5351C23.5597 88.9729 28.2954 91.7021 33.4087 91.7021Z" fill="#E6A8FF"/>
<path d="M39.3696 51.1107V56.0881H53.0034V63.5542H58.4136V56.0881H63.6074V51.1107H58.4136V22.9775H50.2441L39.3696 51.1107ZM43.8601 51.1107L53.0034 27.1975V51.1107H43.8601Z" fill="white"/>
</g>
<defs>
<clipPath id="clip0">
<rect width="101.442" height="91.6733" fill="white" transform="translate(0.914062 0.0288086)"/>
</clipPath>
</defs>
</svg>
