<svg width="171" height="40" viewBox="0 0 171 40" fill="none" xmlns="http://www.w3.org/2000/svg">
<rect width="171" height="40" rx="20" fill="black" fill-opacity="0.7"/>
<path d="M29.5347 19.138C30.192 19.5247 30.192 20.4753 29.5347 20.8619L15.507 29.1135C14.8404 29.5057 14 29.025 14 28.2516V11.7484C14 10.975 14.8404 10.4943 15.507 10.8865L29.5347 19.138Z" fill="white"/>
<g clip-path="url(#clip0)">
<path d="M43.32 10L39.288 28H41.712L42.648 23.584H47.592L48.528 28H50.952L46.92 10H43.32ZM43.128 21.376L45.12 11.92L47.112 21.376H43.128ZM55.3104 28V23.032H61.0704V28H63.4704V16H61.0704V20.848H55.3104V16H52.9104V28H55.3104ZM70.3757 28.24C72.1037 28.24 73.6397 27.568 74.4317 25.984V28H76.7837V19.6C76.7837 16.816 74.3837 15.76 71.7917 15.76C69.1517 15.76 66.6557 16.936 66.6557 20.032H69.1517C69.1517 18.472 70.2317 17.68 71.7917 17.68C73.2557 17.68 74.3837 18.328 74.3837 19.504C74.3837 22.24 66.2957 19.648 66.2957 24.832C66.2957 27.208 68.2397 28.24 70.3757 28.24ZM68.7437 24.688C68.7437 22.672 72.3917 23.176 74.4317 22.192V23.056C74.4317 25.144 72.7037 26.224 70.8557 26.224C69.6317 26.224 68.7437 25.72 68.7437 24.688ZM88.5351 20.776H91.0311C90.7431 17.776 88.2711 15.76 85.1031 15.76C81.6711 15.76 79.1271 18.328 79.1271 22C79.1271 25.672 81.6711 28.24 85.1031 28.24C88.3671 28.24 90.8871 26.128 91.0791 22.96H88.5831C88.3431 24.952 86.8551 26.032 85.1031 26.032C83.0631 26.032 81.5271 24.424 81.5271 22C81.5271 19.576 83.0631 17.968 85.1031 17.968C86.8311 17.968 88.2951 18.952 88.5351 20.776ZM98.1481 28V18.208H102.036V16H91.8601V18.208H95.7481V28H98.1481ZM107.482 28.24C109.21 28.24 110.746 27.568 111.538 25.984V28H113.89V19.6C113.89 16.816 111.49 15.76 108.898 15.76C106.258 15.76 103.762 16.936 103.762 20.032H106.258C106.258 18.472 107.338 17.68 108.898 17.68C110.362 17.68 111.49 18.328 111.49 19.504C111.49 22.24 103.402 19.648 103.402 24.832C103.402 27.208 105.346 28.24 107.482 28.24ZM105.85 24.688C105.85 22.672 109.498 23.176 111.538 22.192V23.056C111.538 25.144 109.81 26.224 107.962 26.224C106.738 26.224 105.85 25.72 105.85 24.688ZM125.641 20.776H128.137C127.849 17.776 125.377 15.76 122.209 15.76C118.777 15.76 116.233 18.328 116.233 22C116.233 25.672 118.777 28.24 122.209 28.24C125.473 28.24 127.993 26.128 128.185 22.96H125.689C125.449 24.952 123.961 26.032 122.209 26.032C120.169 26.032 118.633 24.424 118.633 22C118.633 19.576 120.169 17.968 122.209 17.968C123.937 17.968 125.401 18.952 125.641 20.776ZM141.604 28V16H138.556L133.06 25.576V16H130.756V28H133.804L139.3 18.424V28H141.604ZM144.787 19.648C144.787 21.976 146.635 23.224 148.651 23.344L143.947 28H146.755L151.939 22.744H151.963V28H154.363V16H149.203C146.803 16 144.787 17.032 144.787 19.648ZM149.611 21.64C148.099 21.64 147.187 21.04 147.187 19.672C147.187 18.448 148.099 17.824 149.611 17.824H151.963V21.64H149.611Z" fill="white"/>
</g>
<defs>
<clipPath id="clip0">
<rect width="118" height="40" fill="white" transform="translate(39)"/>
</clipPath>
</defs>
</svg>
