<svg width="171" height="40" fill="none" xmlns="http://www.w3.org/2000/svg"><rect width="171" height="40" rx="20" fill="#000" fill-opacity=".7"/><path d="M29.535 19.138a1 1 0 010 1.724l-14.028 8.252A1 1 0 0114 28.252V11.748a1 1 0 011.507-.861l14.028 8.251z" fill="#fff"/><g clip-path="url(#clip0)"><path d="M43.32 10l-4.032 18h2.424l.936-4.416h4.944L48.528 28h2.424L46.92 10h-3.6zm-.192 11.376l1.992-9.456 1.992 9.456h-3.984zM55.31 28v-4.968h5.76V28h2.4V16h-2.4v4.848h-5.76V16h-2.4v12h2.4zm15.066.24c1.728 0 3.264-.672 4.056-2.256V28h2.352v-8.4c0-2.784-2.4-3.84-4.992-3.84-2.64 0-5.136 1.176-5.136 4.272h2.496c0-1.56 1.08-2.352 2.64-2.352 1.464 0 2.592.648 2.592 1.824 0 2.736-8.088.144-8.088 5.328 0 2.376 1.944 3.408 4.08 3.408zm-1.632-3.552c0-2.016 3.648-1.512 5.688-2.496v.864c0 2.088-1.728 3.168-3.576 3.168-1.224 0-2.112-.504-2.112-1.536zm19.791-3.912h2.496c-.288-3-2.76-5.016-5.928-5.016-3.432 0-5.976 2.568-5.976 6.24s2.544 6.24 5.976 6.24c3.264 0 5.784-2.112 5.976-5.28h-2.496c-.24 1.992-1.728 3.072-3.48 3.072-2.04 0-3.576-1.608-3.576-4.032s1.536-4.032 3.576-4.032c1.728 0 3.192.984 3.432 2.808zM98.148 28v-9.792h3.888V16H91.86v2.208h3.888V28h2.4zm9.334.24c1.728 0 3.264-.672 4.056-2.256V28h2.352v-8.4c0-2.784-2.4-3.84-4.992-3.84-2.64 0-5.136 1.176-5.136 4.272h2.496c0-1.56 1.08-2.352 2.64-2.352 1.464 0 2.592.648 2.592 1.824 0 2.736-8.088.144-8.088 5.328 0 2.376 1.944 3.408 4.08 3.408zm-1.632-3.552c0-2.016 3.648-1.512 5.688-2.496v.864c0 2.088-1.728 3.168-3.576 3.168-1.224 0-2.112-.504-2.112-1.536zm19.791-3.912h2.496c-.288-3-2.76-5.016-5.928-5.016-3.432 0-5.976 2.568-5.976 6.24s2.544 6.24 5.976 6.24c3.264 0 5.784-2.112 5.976-5.28h-2.496c-.24 1.992-1.728 3.072-3.48 3.072-2.04 0-3.576-1.608-3.576-4.032s1.536-4.032 3.576-4.032c1.728 0 3.192.984 3.432 2.808zM141.604 28V16h-3.048l-5.496 9.576V16h-2.304v12h3.048l5.496-9.576V28h2.304zm3.183-8.352c0 2.328 1.848 3.576 3.864 3.696L143.947 28h2.808l5.184-5.256h.024V28h2.4V16h-5.16c-2.4 0-4.416 1.032-4.416 3.648zm4.824 1.992c-1.512 0-2.424-.6-2.424-1.968 0-1.224.912-1.848 2.424-1.848h2.352v3.816h-2.352z" fill="#fff"/></g><defs><clipPath id="clip0"><path fill="#fff" transform="translate(39)" d="M0 0h118v40H0z"/></clipPath></defs></svg>