<svg width="122" height="122" viewBox="0 0 122 122" fill="none" xmlns="http://www.w3.org/2000/svg">
<path d="M105.438 1.11947C76.5637 10.4356 45.4363 10.4356 16.5624 1.11947C4.17788 -2.87458 -2.87458 4.17788 1.11947 16.5624C10.4356 45.4363 10.4356 76.5637 1.11947 105.438C-2.87458 117.822 4.17788 124.875 16.5624 120.881C45.4363 111.564 76.5637 111.564 105.438 120.881C117.822 124.875 124.875 117.822 120.881 105.438C111.564 76.5637 111.564 45.4363 120.881 16.5624C124.875 4.17788 117.822 -2.87458 105.438 1.11947Z" fill="#FF6D00"/>
<path d="M50.0106 59.344V79H57.2106V57.904C57.2106 47.32 51.3786 42.28 43.5306 42.28C38.7786 42.28 34.8186 44.512 32.5866 48.688V43H25.3866V79H32.5866V59.344C32.5866 52.216 35.8986 48.616 41.2986 48.616C46.6986 48.616 50.0106 52.216 50.0106 59.344ZM81.0558 79.72C91.4958 79.72 99.2718 72.016 99.2718 61C99.2718 49.984 91.4958 42.28 81.0558 42.28C70.6158 42.28 62.8398 49.984 62.8398 61C62.8398 72.016 70.6158 79.72 81.0558 79.72ZM81.0558 73.096C74.7918 73.096 70.0398 68.272 70.0398 61C70.0398 53.728 74.7918 48.904 81.0558 48.904C87.3198 48.904 92.0718 53.728 92.0718 61C92.0718 68.272 87.3198 73.096 81.0558 73.096Z" fill="white"/>
</svg>
