<svg width="164" height="164" viewBox="0 0 164 164" fill="none" xmlns="http://www.w3.org/2000/svg">
<g clip-path="url(#clip0)">
<path d="M155.364 71.1434C128.498 57.3951 106.615 35.5017 92.8562 8.63533C86.9626 -2.8817 77.0365 -2.8817 71.143 8.63533C57.3946 35.5017 35.5012 57.3951 8.63484 71.1434C-2.88219 77.037 -2.88219 86.9631 8.63484 92.8567C35.5012 106.605 57.3846 128.498 71.143 155.365C77.0365 166.882 86.9626 166.882 92.8562 155.365C106.605 128.498 128.498 106.615 155.364 92.8567C166.881 86.9631 166.881 77.037 155.364 71.1434Z" fill="#FF64B0"/>
<path d="M63.1339 98.72C73.5739 98.72 81.3499 91.016 81.3499 80C81.3499 68.984 73.5739 61.28 63.1339 61.28C52.6939 61.28 44.9179 68.984 44.9179 80C44.9179 91.016 52.6939 98.72 63.1339 98.72ZM63.1339 92.096C56.8699 92.096 52.1179 87.272 52.1179 80C52.1179 72.728 56.8699 67.904 63.1339 67.904C69.3979 67.904 74.1499 72.728 74.1499 80C74.1499 87.272 69.3979 92.096 63.1339 92.096ZM94.5475 44H87.3475V98H94.5475V79.064L111.756 98H120.9L102.684 78.416L119.604 62H110.028L94.5475 77.984V44Z" fill="white"/>
</g>
<defs>
<clipPath id="clip0">
<rect width="164" height="164" fill="white"/>
</clipPath>
</defs>
</svg>
