<svg width="125" height="139" viewBox="0 0 125 139" fill="none" xmlns="http://www.w3.org/2000/svg">
<g clip-path="url(#clip0)">
<path d="M25.5297 135.237C10.6641 143.848 0 136.674 0 123.893C0 110.298 0 69.4925 0 69.4925C0 69.4925 0 28.6973 0 15.0922C0 2.33111 10.6641 -4.85326 25.5297 3.76799C48.6685 17.1822 118.075 57.4549 118.075 57.4549C127.308 62.8105 127.308 76.1945 118.075 81.5501C118.065 81.5501 48.6585 121.813 25.5297 135.237Z" fill="#40E687"/>
<path d="M28.1583 48.624H48.1743V42H21.2463V71.16H28.1583C28.6623 68.208 30.7503 65.616 35.0703 65.616C39.3903 65.616 42.2703 68.28 42.2703 75.408V80.736C42.2703 87.216 39.3183 90.096 35.0703 90.096C30.5343 90.096 27.7263 87.288 27.7263 80.448V79.584H20.5263V81.6C20.5263 91.464 26.9343 96.72 35.0703 96.72C43.0623 96.72 49.4703 91.32 49.4703 80.736V74.976C49.4703 64.68 45.1503 59.28 36.9423 59.28C32.9823 59.28 29.9583 61.08 28.1583 63.888V48.624ZM63.0358 78L63.6118 42H55.8358L56.4118 78H63.0358ZM59.7238 96.72C62.2438 96.72 64.1878 94.632 64.1878 92.256C64.1878 89.808 62.2438 87.72 59.7238 87.72C57.2758 87.72 55.1878 89.808 55.1878 92.256C55.1878 94.632 57.2758 96.72 59.7238 96.72Z" fill="white"/>
</g>
<defs>
<clipPath id="clip0">
<rect width="125" height="139" fill="white"/>
</clipPath>
</defs>
</svg>
