<svg width="211" height="106" viewBox="0 0 211 106" fill="none" xmlns="http://www.w3.org/2000/svg">
<g clip-path="url(#clip0)">
<path d="M161.497 0.100683C151.893 -0.493014 142.811 1.48933 134.853 5.41376C118.556 13.4538 92.4646 13.4639 76.1674 5.41376C68.1995 1.48933 59.1076 -0.493014 49.5039 0.100683C23.3622 1.72077 2.09765 22.7517 0.15082 48.9448C-2.15728 80.0485 22.3286 106 52.8557 106C61.1748 106 69.0324 104.078 76.037 100.647C94.7125 91.4897 116.298 91.4897 134.974 100.647C141.968 104.078 149.836 106 158.155 106C188.682 106 213.168 80.0485 210.86 48.9448C208.903 22.7517 187.638 1.72077 161.497 0.100683Z" fill="#BCEC30"/>
<path d="M69.1784 56.448C69.2504 55.656 69.3224 54.864 69.3224 54C69.3224 42.984 61.8344 35.28 51.6104 35.28C41.3864 35.28 33.8984 42.984 33.8984 54C33.8984 65.016 41.3864 72.72 51.6104 72.72C59.8904 72.72 66.1544 68.616 68.3864 61.2H60.6104C59.1704 64.44 56.2904 66.384 51.8984 66.384C45.8504 66.384 41.8184 62.712 40.9544 56.448H69.1784ZM51.6104 41.616C57.3704 41.616 61.3304 45.216 62.1944 51.264H41.0264C41.8904 45.216 45.7784 41.616 51.6104 41.616ZM83.1196 36H75.3436V72H124.304V36H117.104V65.376H103.424V36H96.2236V65.376H83.1196V36ZM161.985 59.904C161.985 52.776 156.873 47.88 148.161 47.88H140.169V36H132.969V72H148.233C157.233 72 161.985 67.032 161.985 59.904ZM147.585 53.928C152.481 53.928 154.785 55.872 154.785 59.832C154.785 63.72 152.481 65.952 147.585 65.952H140.169V53.928H147.585ZM174.872 54L175.448 18H167.672L168.248 54H174.872ZM171.56 72.72C174.08 72.72 176.024 70.632 176.024 68.256C176.024 65.808 174.08 63.72 171.56 63.72C169.112 63.72 167.024 65.808 167.024 68.256C167.024 70.632 169.112 72.72 171.56 72.72Z" fill="white"/>
</g>
<defs>
<clipPath id="clip0">
<rect width="211" height="106" fill="white"/>
</clipPath>
</defs>
</svg>
