<svg width="135" height="122" viewBox="0 0 135 122" fill="none" xmlns="http://www.w3.org/2000/svg">
<path d="M43.2443 122H91.6024C98.4174 122 104.71 118.358 108.117 112.452L132.573 70.0449C135.809 64.4409 135.809 57.539 132.573 51.935L108.117 9.54791C104.71 3.64209 98.4174 0 91.6024 0H43.2443C36.4294 0 30.1371 3.64209 26.7296 9.54791L2.55561 51.4621C-0.85187 57.368 -0.85187 64.6421 2.55561 70.5479L26.7296 112.462C30.1371 118.368 36.4394 122 43.2443 122Z" fill="#AD61FF"/>
<path d="M28.3819 72.376V88.72H35.0059V79H61.4299V88.72H68.0539V72.376H63.0139V43H35.2939C35.1499 64.096 33.7099 68.992 31.9099 72.376H28.3819ZM41.0539 63.808C41.4859 60.568 41.7739 56.104 41.8459 49.624H55.8139V72.376H39.1819C39.9019 70.576 40.4779 67.984 41.0539 63.808ZM84.0241 79.72C89.2081 79.72 93.8161 77.704 96.1921 72.952V79H103.248V53.8C103.248 45.448 96.0481 42.28 88.2721 42.28C80.3521 42.28 72.8641 45.808 72.8641 55.096H80.3521C80.3521 50.416 83.5921 48.04 88.2721 48.04C92.6641 48.04 96.0481 49.984 96.0481 53.512C96.0481 61.72 71.7841 53.944 71.7841 69.496C71.7841 76.624 77.6161 79.72 84.0241 79.72ZM79.1281 69.064C79.1281 63.016 90.0721 64.528 96.1921 61.576V64.168C96.1921 70.432 91.0081 73.672 85.4641 73.672C81.7921 73.672 79.1281 72.16 79.1281 69.064Z" fill="white"/>
</svg>
