<svg width="108" height="108" viewBox="0 0 108 108" fill="none" xmlns="http://www.w3.org/2000/svg">
<path d="M54 108C83.8234 108 108 83.8234 108 54C108 24.1766 83.8234 0 54 0C24.1766 0 0 24.1766 0 54C0 83.8234 24.1766 108 54 108Z" fill="#00C1FF"/>
<path d="M32.9386 72.72C43.3786 72.72 51.1546 65.016 51.1546 54C51.1546 42.984 43.3786 35.28 32.9386 35.28C22.4986 35.28 14.7226 42.984 14.7226 54C14.7226 65.016 22.4986 72.72 32.9386 72.72ZM32.9386 66.096C26.6746 66.096 21.9226 61.272 21.9226 54C21.9226 46.728 26.6746 41.904 32.9386 41.904C39.2026 41.904 43.9546 46.728 43.9546 54C43.9546 61.272 39.2026 66.096 32.9386 66.096ZM81.7762 52.344V72H88.9762V50.904C88.9762 40.32 83.1442 35.28 75.2962 35.28C70.5442 35.28 66.5842 37.512 64.3522 41.688V18H57.1522V72H64.3522V52.344C64.3522 45.216 67.6642 41.616 73.0642 41.616C78.4642 41.616 81.7762 45.216 81.7762 52.344Z" fill="white"/>
</svg>
